# xmcd
#
# Track frame offsets:
#	150
#	17660
#	34859
#	52014
#	67294
#	82517
#	99372
#	118708
#	133880
#	152087
#	167259
#	182810
#
# Disc length: 2797 seconds
#
# Revision: 0
# Processed by: cddbd v1.5.2PL0 Copyright (c) Steve Scherf et al.
# Submitted via: dBpowerAMP V4.0
#
DISCID=970aeb0c
DTITLE=Starlight - Todu por ellas
DYEAR=1900
DGENRE=
TTITLE0=tudo por elas
TTITLE1=somos todos compeoes
TTITLE2=camarao a gosto
TTITLE3=beber, cair, levantar
TTITLE4=beijos e mimos
TTITLE5=a idade so re fez bem
TTITLE6=beija me muito
TTITLE7=a final, o que aconteceu
TTITLE8=a malta vai toda
TTITLE9=que tenhas sorte
TTITLE10=gloria, que la vida e bela
TTITLE11=valsa e tango mix
EXTD=
EXTT0=
EXTT1=
EXTT2=
EXTT3=
EXTT4=
EXTT5=
EXTT6=
EXTT7=
EXTT8=
EXTT9=
EXTT10=
EXTT11=
PLAYORDER=
